# xmcd CD database file
#
# Track frame offsets:
#	150
#	24498
#	44208
#	70110
#	101058
#	126343
#	147628
#	169293
#
# Disc length: 2495 seconds
#
# Revision: 0
# Processed by: cddbd v1.5.2PL0 Copyright (c) Steve Scherf et al.
# Submitted via: CDex 1.70beta2
#
DISCID=7d09bd08
DTITLE=Heiner Franz, Louis Stewart,  - Winter Songs
DYEAR=1990
DGENRE=Jazz
TTITLE0=Almost A Simple Blues
TTITLE1=Like Someone In Love
TTITLE2=Winter Song
TTITLE3=I Should Care 
TTITLE4=Bluesette
TTITLE5=Just In Time
TTITLE6=Joy Spring
TTITLE7=Chelsea Bridge
EXTD=YEAR: 1990
EXTT0=
EXTT1=
EXTT2=
EXTT3=
EXTT4=
EXTT5=
EXTT6=
EXTT7=
PLAYORDER=
